<svg id="visual" viewBox="0 0 900 600" width="900" height="600" xmlns="http://www.w3.org/2000/svg" xmlns:xlink="http://www.w3.org/1999/xlink" version="1.1"><rect x="0" y="0" width="900" height="600" fill="#161925"></rect><path d="M0 254L18.8 258.8C37.7 263.7 75.3 273.3 112.8 286.7C150.3 300 187.7 317 225.2 313.8C262.7 310.7 300.3 287.3 337.8 276.3C375.3 265.3 412.7 266.7 450.2 292C487.7 317.3 525.3 366.7 562.8 370.7C600.3 374.7 637.7 333.3 675.2 295C712.7 256.7 750.3 221.3 787.8 205.3C825.3 189.3 862.7 192.7 881.3 194.3L900 196L900 601L881.3 601C862.7 601 825.3 601 787.8 601C750.3 601 712.7 601 675.2 601C637.7 601 600.3 601 562.8 601C525.3 601 487.7 601 450.2 601C412.7 601 375.3 601 337.8 601C300.3 601 262.7 601 225.2 601C187.7 601 150.3 601 112.8 601C75.3 601 37.7 601 18.8 601L0 601Z" fill="#1f5175"></path><path d="M0 382L18.8 376.7C37.7 371.3 75.3 360.7 112.8 368.8C150.3 377 187.7 404 225.2 413.8C262.7 423.7 300.3 416.3 337.8 402.5C375.3 388.7 412.7 368.3 450.2 354C487.7 339.7 525.3 331.3 562.8 330.3C600.3 329.3 637.7 335.7 675.2 330.2C712.7 324.7 750.3 307.3 787.8 300.3C825.3 293.3 862.7 296.7 881.3 298.3L900 300L900 601L881.3 601C862.7 601 825.3 601 787.8 601C750.3 601 712.7 601 675.2 601C637.7 601 600.3 601 562.8 601C525.3 601 487.7 601 450.2 601C412.7 601 375.3 601 337.8 601C300.3 601 262.7 601 225.2 601C187.7 601 150.3 601 112.8 601C75.3 601 37.7 601 18.8 601L0 601Z" fill="#27607d"></path><path d="M0 425L18.8 411.3C37.7 397.7 75.3 370.3 112.8 377.5C150.3 384.7 187.7 426.3 225.2 433.8C262.7 441.3 300.3 414.7 337.8 411.8C375.3 409 412.7 430 450.2 437.5C487.7 445 525.3 439 562.8 423.3C600.3 407.7 637.7 382.3 675.2 370.5C712.7 358.7 750.3 360.3 787.8 365.2C825.3 370 862.7 378 881.3 382L900 386L900 601L881.3 601C862.7 601 825.3 601 787.8 601C750.3 601 712.7 601 675.2 601C637.7 601 600.3 601 562.8 601C525.3 601 487.7 601 450.2 601C412.7 601 375.3 601 337.8 601C300.3 601 262.7 601 225.2 601C187.7 601 150.3 601 112.8 601C75.3 601 37.7 601 18.8 601L0 601Z" fill="#366e83"></path><path d="M0 533L18.8 525.8C37.7 518.7 75.3 504.3 112.8 488.8C150.3 473.3 187.7 456.7 225.2 459.3C262.7 462 300.3 484 337.8 481.2C375.3 478.3 412.7 450.7 450.2 431.7C487.7 412.7 525.3 402.3 562.8 414.2C600.3 426 637.7 460 675.2 461.8C712.7 463.7 750.3 433.3 787.8 416.3C825.3 399.3 862.7 395.7 881.3 393.8L900 392L900 601L881.3 601C862.7 601 825.3 601 787.8 601C750.3 601 712.7 601 675.2 601C637.7 601 600.3 601 562.8 601C525.3 601 487.7 601 450.2 601C412.7 601 375.3 601 337.8 601C300.3 601 262.7 601 225.2 601C187.7 601 150.3 601 112.8 601C75.3 601 37.7 601 18.8 601L0 601Z" fill="#487c89"></path><path d="M0 526L18.8 515.8C37.7 505.7 75.3 485.3 112.8 476.5C150.3 467.7 187.7 470.3 225.2 474.2C262.7 478 300.3 483 337.8 490.7C375.3 498.3 412.7 508.7 450.2 517.7C487.7 526.7 525.3 534.3 562.8 529.2C600.3 524 637.7 506 675.2 508.3C712.7 510.7 750.3 533.3 787.8 545C825.3 556.7 862.7 557.3 881.3 557.7L900 558L900 601L881.3 601C862.7 601 825.3 601 787.8 601C750.3 601 712.7 601 675.2 601C637.7 601 600.3 601 562.8 601C525.3 601 487.7 601 450.2 601C412.7 601 375.3 601 337.8 601C300.3 601 262.7 601 225.2 601C187.7 601 150.3 601 112.8 601C75.3 601 37.7 601 18.8 601L0 601Z" fill="#5c898f"></path></svg>